<svg width="160" height="140" viewBox="0 0 160 140" fill="none" xmlns="http://www.w3.org/2000/svg">
  <rect width="160" height="140" fill="#384C67"/>
  <g clip-path="url(#clip0_1_2)">
    <path d="M41.9407 81.3887H45.1795L52.0197 97.5197H48.3519L46.8956 93.9297H40.146L38.6898 97.5197H35.1125L41.9528 81.3887H41.9407ZM45.6327 90.8126L43.5118 85.6216L41.3908 90.8126H45.6327Z" fill="#D9E1E2"/>
    <path d="M58.2436 91.0431H54.1165V87.8836H58.2436V83.7659H61.4825V87.8836H65.6095V91.0431H61.4825V95.1607H58.2436V91.0431Z" fill="#D9E1E2"/>
    <path d="M81.7252 97.5197H78.2144V92.3954H75.6584L72.0812 97.5197H67.9299L71.9664 91.8435C69.9119 91.1098 68.4073 89.5573 68.4073 87.0406V87.0164C68.4073 83.2626 71.0056 81.5039 75.0843 81.5039H81.7191V97.5197H81.7252ZM74.7278 84.6816C72.9936 84.6816 71.9664 85.4397 71.9664 86.9921V87.0164C71.9664 88.3869 72.9211 89.3026 74.6553 89.2784H78.2144V84.6816H74.7278Z" fill="#D9E1E2"/>
    <path d="M116.978 79.43V117.326H22.6648V22.6743H116.978V33.2808H119.642V20H20V120H119.642V79.43H116.978Z" fill="#D9E1E2"/>
    <path d="M37.2275 51.7223L41.9407 46.2462H43.2398V51.7223H45.0164L44.9982 46.2462H46.2309L50.9925 51.7223H53.2041L47.6932 45.3669L53.0651 39.4118H50.8293L46.1826 44.6149H44.9982L45.0164 39.4118H43.2398V44.6149H42.0736L37.4269 39.4118H35.1911L40.5448 45.3669L35.034 51.7223H37.2275Z" fill="#D9E1E2"/>
    <path d="M63.1865 42.3711V51.7223H64.963V39.4118H63.3677L56.2979 48.5446V39.4118H54.5214V51.7223H55.9535L63.1865 42.3711Z" fill="#D9E1E2"/>
    <path d="M70.9391 51.7223H72.7156V41.0976H76.7038V39.4118H66.951V41.0976H70.9391V51.7223Z" fill="#D9E1E2"/>
    <path d="M81.556 39.3269L76.1055 51.7223H78.0271L82.275 41.8921L86.5411 51.7223H88.511L83.0425 39.3269H81.556Z" fill="#D9E1E2"/>
    <path d="M95.2848 51.9284C98.8015 51.9284 101.551 49.1328 101.551 45.567V45.5306C101.551 41.9224 98.868 39.2056 95.315 39.2056C91.7619 39.2056 89.0488 42.0012 89.0488 45.567V45.6034C89.0488 49.2116 91.7317 51.9284 95.2848 51.9284ZM90.8797 45.567V45.5306C90.8797 42.8866 92.771 40.8854 95.2848 40.8854C97.7985 40.8854 99.7261 42.8927 99.7261 45.5609V45.5973C99.7261 48.2414 97.8347 50.2426 95.321 50.2426C92.8073 50.2426 90.8797 48.2353 90.8797 45.567Z" fill="#D9E1E2"/>
    <path d="M111.727 45.3244C112.506 44.8575 113.255 44.0388 113.255 42.6198V42.5834C113.255 41.789 112.977 41.0976 112.428 40.5276C111.684 39.7999 110.56 39.4118 109.183 39.4118H103.926V51.7223H109.4C112.186 51.7223 113.914 50.3942 113.914 48.2596V48.2232C113.914 46.8708 113.159 45.8763 111.727 45.3184V45.3244ZM111.461 42.8078C111.461 44.0146 110.548 44.7059 108.965 44.7059H105.69V41.0673H109.068C110.566 41.0673 111.467 41.7041 111.467 42.7774V42.8138L111.461 42.8078ZM112.119 48.1504V48.1868C112.119 49.3936 111.141 50.0849 109.437 50.0849H105.69V46.3432H109.201C110.53 46.3432 112.119 46.6586 112.119 48.1565V48.1504Z" fill="#D9E1E2"/>
    <path d="M124.785 42.3711V51.7223H126.567V39.4118H124.966L117.902 48.5446V39.4118H116.12V51.7223H117.552L124.785 42.3711Z" fill="#D9E1E2"/>
    <path d="M138.133 42.3711V51.7223H139.909V39.4118H138.314L131.244 48.5446V39.4118H129.468V51.7223H130.894L138.133 42.3711Z" fill="#D9E1E2"/>
    <path d="M134.689 38.872C136.241 38.872 137.281 38.0534 137.408 36.7374L137.432 36.4948H136.018L135.964 36.6465C135.794 37.1316 135.365 37.3802 134.689 37.3802C134.012 37.3802 133.577 37.1316 133.414 36.6465L133.359 36.4948H131.945L131.969 36.7374C132.096 38.0534 133.142 38.872 134.689 38.872Z" fill="#D9E1E2"/>
    <path d="M45.8321 59.7574H43.4755L38.5447 64.9606H36.9314V59.7574H35.1548V72.0679H36.9314V66.6101H38.5931L43.693 72.0679H46.0799L40.0796 65.6944L45.8321 59.7574Z" fill="#D9E1E2"/>
    <path d="M52.4004 59.5512C48.8836 59.5512 46.1342 62.3469 46.1342 65.9127V65.9491C46.1342 69.5573 48.8172 72.2741 52.3702 72.2741C55.9233 72.2741 58.6364 69.4785 58.6364 65.9127V65.8763C58.6364 62.268 55.9535 59.5512 52.4004 59.5512ZM56.8055 65.9127V65.9491C56.8055 68.5931 54.9141 70.5943 52.4004 70.5943C49.8867 70.5943 47.9591 68.587 47.9591 65.9187V65.8824C47.9591 63.2383 49.8504 61.2432 52.3642 61.2432C54.8779 61.2432 56.8055 63.2505 56.8055 65.9187V65.9127Z" fill="#D9E1E2"/>
    <path d="M67.1746 66.0643L62.7937 59.7574H61.0474V72.0679H62.8481V62.9472L67.0054 68.8114H67.3075L71.4709 62.9291V72.0679H73.3078V59.7574H71.5555L67.1746 66.0643Z" fill="#D9E1E2"/>
    <path d="M77.3503 72.0679H79.1268V61.4372H85.4897V72.0679H87.2662V59.7574H77.3503V72.0679Z" fill="#D9E1E2"/>
    <path d="M95.037 59.6725L89.5866 72.0679H91.5142L95.7561 62.2317L100.022 72.0679H101.992L96.5235 59.6725H95.037Z" fill="#D9E1E2"/>
    <path d="M105.708 66.6525H112.156V64.9848H105.708V61.3766H112.917V59.715H103.926V72.0255H113.002V70.3578H105.708V66.6525Z" fill="#D9E1E2"/>
    <path d="M127.727 59.7574H125.371L120.44 64.9606H118.827V59.7574H117.05V72.0679H118.827V66.6101H120.488L125.588 72.0679H127.975L121.969 65.6944L127.727 59.7574Z" fill="#D9E1E2"/>
    <path d="M138.81 68.7871L138.653 68.9388C137.619 69.9272 136.598 70.5882 134.991 70.5882C132.507 70.5882 130.634 68.581 130.634 65.9127V65.8763C130.634 63.2323 132.507 61.2371 134.991 61.2371C136.652 61.2371 137.686 61.9891 138.556 62.8017L138.719 62.9533L139.927 61.6495L139.77 61.4979C138.785 60.5337 137.444 59.5512 135.003 59.5512C131.528 59.5512 128.803 62.3469 128.803 65.9127V65.9491C128.803 69.5573 131.45 72.2741 134.954 72.2741C136.894 72.2741 138.399 71.6131 139.843 70.1213L140 69.9636L138.81 68.7932V68.7871Z" fill="#D9E1E2"/>
    <g opacity="0.4">
      <path d="M119.226 80.5761L118.929 80.0546L136.477 70.091L118.809 33.2929L119.346 33.0321L137.257 70.3335L119.226 80.5761Z" fill="#D9E1E2"/>
    </g>
  </g>
  <defs>
    <clipPath id="clip0_1_2">
      <rect width="120" height="100" fill="white" transform="translate(20 20)"/>
    </clipPath>
  </defs>
</svg>
