<svg width="46" height="50" viewBox="0 0 46 50" fill="none" xmlns="http://www.w3.org/2000/svg">
<g id="label_logo_smart_orange_orange 1" clip-path="url(#clip0_642_3982)">
<g id="Group">
<path id="Vector" d="M45.0704 0H0V50H45.0704V0Z" fill="white"/>
<g id="Group_2">
<g id="Group_3">
<path id="Vector_2" d="M6.43368 35.6439C6.43368 35.8668 6.71131 35.9543 7.72991 35.9543C8.85036 35.9543 8.99188 35.8797 8.99188 35.7406C8.99188 35.5923 8.91526 35.5177 7.56765 35.4744C5.75041 35.4137 5.26726 35.1069 5.26726 34.43C5.26726 33.7088 5.90906 33.333 7.64517 33.333C9.49306 33.333 10.0745 33.5688 10.0745 34.3296C10.0745 34.395 10.0745 34.4604 10.07 34.535C9.94196 34.5267 9.71481 34.5221 9.49667 34.5221C9.27041 34.5221 9.04326 34.5267 8.91526 34.535V34.4521C8.91526 34.2292 8.76112 34.1546 7.62805 34.1546C6.58422 34.1546 6.43098 34.22 6.43098 34.3517C6.43098 34.4825 6.5121 34.5396 7.94534 34.6142C9.64359 34.7017 10.1646 34.955 10.1646 35.689C10.1646 36.4535 9.57058 36.821 7.74433 36.821C5.87931 36.821 5.24292 36.5023 5.24292 35.8373C5.24292 35.759 5.24743 35.6752 5.26005 35.5887C5.40968 35.6062 5.63593 35.619 5.85047 35.619C6.06861 35.619 6.27413 35.6144 6.43638 35.6062V35.6439H6.43368Z" fill="#142034"/>
<path id="Vector_3" d="M15.7722 36.7156C15.7893 36.2477 15.8019 35.7936 15.8064 35.2521C15.8064 35.0292 15.8236 34.7888 15.8362 34.5576L15.8064 34.5493C15.6992 34.7676 15.5802 34.9951 15.4342 35.1876L14.3047 36.7175H13.7188L12.4532 34.996C12.3117 34.8035 12.1882 34.5769 12.0809 34.3669L12.0512 34.3752C12.0638 34.6027 12.0809 34.8293 12.0854 35.0789C12.0899 35.6905 12.1026 36.2017 12.1278 36.7175H10.9812C11.0064 36.2459 11.0155 35.7688 11.0155 35.0743C11.0155 34.3577 11.0073 33.8677 10.9938 33.4395H12.7128C12.9481 33.7931 13.2987 34.3264 13.7395 34.9776C13.8549 35.1434 13.9793 35.3313 14.0992 35.5238H14.1244C14.2398 35.3267 14.3507 35.1388 14.4579 34.9776C14.8681 34.3531 15.253 33.7848 15.4846 33.4395H17.0026C16.99 33.8677 16.9774 34.3568 16.9774 35.0743C16.9774 35.7688 16.9819 36.2459 17.0116 36.7175H15.7722V36.7156Z" fill="#142034"/>
<path id="Vector_4" d="M21.9553 36.7146C21.9165 36.6188 21.8137 36.4042 21.6731 36.138C21.2287 36.1334 20.7789 36.1334 20.4373 36.1334C20.1254 36.1334 19.6675 36.1334 19.2357 36.138C19.0906 36.3867 18.9752 36.5967 18.9193 36.7146H17.5122C18.1234 35.8497 19.3087 34.0141 19.5863 33.4375H21.3657C21.6569 34.0141 22.8413 35.8276 23.4786 36.7146H21.9553ZM20.1723 34.5685C20.0271 34.8043 19.8604 35.0797 19.6972 35.3551C19.9667 35.3597 20.2363 35.3597 20.4418 35.3597C20.6644 35.3597 20.9547 35.3597 21.2458 35.3551C21.0872 35.0751 20.9204 34.796 20.7708 34.5593C20.6383 34.3539 20.5445 34.1835 20.4715 34.0482L20.1723 34.5685Z" fill="#142034"/>
<path id="Vector_5" d="M27.6173 35.3735C28.3655 35.4481 28.708 35.5706 28.845 36.068C28.9217 36.3517 28.9902 36.5884 29.0461 36.7146H27.9815C27.7895 36.7146 27.7552 36.6713 27.648 36.243C27.5542 35.858 27.4127 35.788 26.6348 35.788H25.1042C25.1123 36.1592 25.1294 36.4788 25.1556 36.7146H23.9324C23.9405 36.2384 23.9495 35.7797 23.9495 35.076C23.9495 34.3816 23.945 33.9091 23.9324 33.4375H27.1143C28.2736 33.4375 28.8162 33.7479 28.8162 34.412C28.8162 34.9757 28.4565 35.2639 27.6191 35.356V35.3735H27.6173ZM26.7403 34.972C27.4289 34.972 27.6768 34.8541 27.6768 34.6137C27.6768 34.365 27.4334 34.2812 26.7529 34.2812C26.4275 34.2812 25.517 34.2858 25.0853 34.2987C25.0853 34.5216 25.0853 34.7445 25.0898 34.9582C25.3981 34.972 26.0516 34.972 26.7403 34.972Z" fill="#142034"/>
<path id="Vector_6" d="M33.8439 33.4375C33.8357 33.5646 33.8357 33.7562 33.8357 33.9266C33.8357 34.0924 33.8357 34.2978 33.8439 34.4378C33.2498 34.4203 32.6594 34.4203 32.1456 34.4203C32.1456 35.5172 32.1501 36.465 32.1627 36.7192C32.005 36.7063 31.7391 36.7063 31.5597 36.7063C31.3803 36.7063 31.1279 36.7063 30.9566 36.7192C30.9693 36.4659 30.9783 35.5218 30.9783 34.4203C30.4654 34.4203 29.875 34.4203 29.28 34.4378C29.2845 34.2978 29.2845 34.097 29.2845 33.9266C29.2845 33.7562 29.2845 33.5683 29.28 33.4375H33.8439Z" fill="#142034"/>
<path id="Vector_7" d="M7.95398 42.1068C5.96096 42.1068 5.14429 41.381 5.14429 40.3108C5.14429 39.1963 6.0466 38.5322 7.95398 38.5322C9.86136 38.5322 10.7637 39.1963 10.7637 40.3108C10.7637 41.382 9.94699 42.1068 7.95398 42.1068ZM9.56209 40.3154C9.56209 39.7775 9.14744 39.4809 7.95398 39.4809C6.76051 39.4809 6.34586 39.7784 6.34586 40.3154C6.34586 40.8441 6.75601 41.1591 7.95398 41.1591C9.15646 41.1591 9.56209 40.8441 9.56209 40.3154Z" fill="#142034"/>
<path id="Vector_8" d="M15.2167 40.6157C15.9649 40.6903 16.3074 40.8128 16.4444 41.3102C16.521 41.5939 16.5895 41.8306 16.6454 41.9568H15.5809C15.3889 41.9568 15.3546 41.9135 15.2473 41.4852C15.1536 41.1002 15.0121 41.0302 14.2342 41.0302H12.7036C12.7117 41.4014 12.7288 41.721 12.755 41.9568H11.5317C11.5399 41.4806 11.5489 41.0219 11.5489 40.3182C11.5489 39.6238 11.5444 39.1513 11.5317 38.6797H14.7137C15.8729 38.6797 16.4156 38.9901 16.4156 39.6542C16.4156 40.2178 16.0559 40.5061 15.2185 40.5982V40.6157H15.2167ZM14.3396 40.2142C15.0283 40.2142 15.2762 40.0963 15.2762 39.8559C15.2762 39.6072 15.0328 39.5234 14.3522 39.5234C14.0268 39.5234 13.1164 39.528 12.6846 39.5409C12.6846 39.7638 12.6846 39.9867 12.6891 40.2003C12.9974 40.2142 13.6519 40.2142 14.3396 40.2142Z" fill="#142034"/>
<path id="Vector_9" d="M21.2074 41.9577C21.1687 41.862 21.0659 41.6474 20.9253 41.3812C20.4809 41.3766 20.0311 41.3766 19.6895 41.3766C19.3776 41.3766 18.9197 41.3766 18.4879 41.3812C18.3428 41.6299 18.2274 41.8399 18.1715 41.9577H16.7644C17.3756 41.0929 18.5609 39.2572 18.8385 38.6807H20.6179C20.9091 39.2572 22.0935 41.0708 22.7308 41.9577H21.2074ZM19.4245 39.8117C19.2793 40.0475 19.1126 40.3229 18.9494 40.5983C19.2189 40.6029 19.4885 40.6029 19.694 40.6029C19.9166 40.6029 20.2069 40.6029 20.498 40.5983C20.3394 40.3183 20.1726 40.0392 20.023 39.8025C19.8905 39.5971 19.7967 39.4267 19.7237 39.2913L19.4245 39.8117Z" fill="#142034"/>
<path id="Vector_10" d="M28.3299 38.6807C28.3172 39.0832 28.3127 39.6201 28.3127 40.3155C28.3127 41.0367 28.3127 41.5212 28.3209 41.9587H27.1022C26.8498 41.6658 25.5202 40.7392 24.7846 40.2151C24.6052 40.0843 24.4214 39.9526 24.2717 39.8136C24.2889 40.0761 24.2934 40.3376 24.3015 40.6047C24.306 41.2817 24.3096 41.7579 24.3231 41.9596H23.2234C23.2234 41.5184 23.236 41.0201 23.236 40.3211C23.236 39.6266 23.236 39.1283 23.2234 38.6825H24.6179C24.7756 38.8925 26.2431 39.9582 26.8975 40.4178C27.0517 40.5228 27.2058 40.6057 27.3212 40.7189C27.3041 40.4786 27.296 40.2474 27.296 40.0678C27.296 39.4608 27.2833 38.9146 27.2662 38.6825H28.3299V38.6807Z" fill="#142034"/>
<path id="Vector_11" d="M31.9529 42.0633C30.1528 42.0633 29.1045 41.5346 29.1045 40.2976C29.1045 38.9952 30.1952 38.5762 31.8889 38.5762C33.5052 38.5762 34.5057 38.847 34.5057 39.826C34.5057 39.8564 34.5057 39.8914 34.5012 39.9218C34.3732 39.9126 34.1461 39.9089 33.9279 39.9089C33.6927 39.9089 33.47 39.9135 33.3375 39.9218C33.3375 39.9043 33.342 39.8868 33.342 39.8693C33.342 39.5635 32.9355 39.4668 31.8835 39.4668C30.7712 39.4668 30.3097 39.6989 30.3097 40.3188C30.3097 40.8825 30.7415 41.1837 31.952 41.1837C32.8544 41.1837 33.2519 41.0437 33.3673 40.7471C32.7732 40.7471 31.9728 40.7517 31.4427 40.7646C31.4473 40.6992 31.4473 40.5592 31.4473 40.4938C31.4473 40.3759 31.4473 40.2709 31.4427 40.188C32.1359 40.2009 32.8453 40.1972 33.3627 40.1972C33.6791 40.1972 34.0857 40.2018 34.5093 40.188C34.5878 41.3679 34.2966 42.0633 31.9529 42.0633Z" fill="#142034"/>
<path id="Vector_12" d="M39.908 38.6807C39.9035 38.7765 39.8999 38.9293 39.8999 39.0657C39.8999 39.2057 39.8999 39.3632 39.908 39.4543C39.0183 39.4497 37.4102 39.4461 36.6107 39.4461V39.9489C37.5346 39.9489 39.1463 39.9489 39.8611 39.9361C39.8566 40.1064 39.853 40.4564 39.8566 40.6397C39.1553 40.6314 37.5256 40.6222 36.6107 40.6222V41.1334C37.4102 41.1334 39.0742 41.1288 39.908 41.1251C39.8999 41.2301 39.8999 41.3959 39.8999 41.5488C39.8999 41.6888 39.8999 41.85 39.908 41.9596H35.3875C35.4046 41.5138 35.4046 41.0201 35.4046 40.3211C35.4046 39.6266 35.4046 39.1237 35.3875 38.6825H39.908V38.6807Z" fill="#142034"/>
</g>
<g id="Group_4">
<g id="Group_5">
<g id="Group_6">
<g id="Group_7">
<g id="Group_8">
<path id="Vector_13" d="M10.6223 24.6566C10.3744 24.6566 10.1409 24.6281 9.92277 24.5691C9.17641 24.3665 8.6572 23.8129 8.41832 22.9665C6.52446 21.4781 5.39951 19.3763 5.24897 17.0432C5.08401 14.4956 6.07196 11.995 8.03072 10.0018L8.16052 9.87012L8.2092 10.0497C8.96187 12.8423 12.865 17.6788 16.9087 20.8315L17.006 20.907L16.9195 20.9955C14.638 23.3183 12.3079 24.6566 10.6223 24.6566ZM8.05506 10.2864C6.2252 12.2133 5.30486 14.6006 5.4617 17.0285C5.60863 19.3099 6.71466 21.3648 8.57607 22.8154L8.60491 22.8376L8.61393 22.8726C8.82936 23.6711 9.28818 24.1712 9.97686 24.3573C10.1806 24.4125 10.4005 24.4393 10.6331 24.4393C12.234 24.4393 14.4677 23.1562 16.6815 20.9273C12.7253 17.8169 8.92311 13.1177 8.05506 10.2864Z" fill="#142034"/>
</g>
<g id="Group_9">
<path id="Vector_14" d="M10.0927 24.5959C8.02761 22.9859 6.03189 20.5065 5.64429 19.0678L5.84981 19.0098C6.2275 20.4098 8.18896 22.8376 10.2216 24.4228L10.0927 24.5959Z" fill="#142034"/>
</g>
<g id="Group_10">
<path id="Vector_15" d="M13.0834 23.8839C9.56158 21.1383 6.15966 16.9144 5.50073 14.4662L5.70625 14.4082C6.35527 16.8167 9.72293 20.99 13.2132 23.7108L13.0834 23.8839Z" fill="#142034"/>
</g>
<g id="Group_11">
<path id="Vector_16" d="M8.46841 23.0037C7.3723 22.5422 6.67821 21.7105 6.46097 20.596C6.06255 18.5522 7.28396 15.8471 9.72768 13.3594L9.87821 13.5132C7.48497 15.9494 6.2861 18.5808 6.6701 20.5528C6.87202 21.5917 7.52283 22.3691 8.54954 22.801L8.46841 23.0037Z" fill="#142034"/>
</g>
<g id="Group_12">
<path id="Vector_17" d="M8.14113 23.1704C8.08344 23.1704 8.03567 23.151 8.00051 23.105C7.9275 23.0074 7.80491 22.8453 9.18406 21.2196C10.0665 20.1788 11.3429 18.8055 12.8735 17.248L13.0241 17.4019C9.61584 20.8714 8.29437 22.5726 8.1862 22.9456C8.23127 22.9328 8.31601 22.8978 8.46654 22.8084L8.57381 22.9963C8.41606 23.0893 8.25922 23.1704 8.14113 23.1704Z" fill="#142034"/>
</g>
</g>
<g id="Group_13">
<g id="Group_14">
<path id="Vector_18" d="M14.6989 25.0407C13.5992 25.0407 12.5094 24.8814 11.4764 24.5581C10.9058 24.6843 10.3848 24.6916 9.93226 24.5691C9.17507 24.3637 8.65226 23.7973 8.41879 22.9315L8.33496 22.6202L8.58645 22.8164C9.46082 23.498 10.447 24.0036 11.4926 24.3361C13.0115 23.9824 14.9053 22.7491 16.7794 20.8417L16.8452 20.7744L16.9191 20.8324C18.6182 22.1569 19.8369 22.8191 20.6969 23.1305C21.4423 22.6718 22.14 22.1219 22.7674 21.4827L22.8972 21.351L22.9459 21.5306C23.2587 22.692 22.9531 23.1931 22.6412 23.4077C22.2311 23.6905 21.5694 23.6693 20.7194 23.369C18.8832 24.4743 16.773 25.0407 14.6989 25.0407ZM11.8802 24.4522C14.6719 25.2185 17.8385 24.7966 20.4589 23.2723C19.461 22.8726 18.2324 22.1247 16.8623 21.0636C15.1235 22.8182 13.3603 23.9999 11.8802 24.4522ZM8.72888 23.194C8.97226 23.8074 9.39412 24.1989 9.98634 24.3591C10.3063 24.4457 10.6633 24.4632 11.0518 24.4153C10.227 24.1169 9.4446 23.7107 8.72888 23.194ZM20.961 23.2189C21.9643 23.5247 22.4005 23.311 22.5204 23.2281C22.9333 22.9435 22.9053 22.3107 22.7836 21.7701C22.223 22.3218 21.6109 22.8053 20.961 23.2189Z" fill="#142034"/>
</g>
<g id="Group_15">
<path id="Vector_19" d="M12.7208 25.9187C12.1367 25.9187 11.2064 25.4545 10.1067 24.597L10.2356 24.4238C11.8004 25.6442 12.7036 25.8367 13.002 25.6313C13.2084 25.4886 13.1643 25.1349 13.0913 24.8632L13.2968 24.8051C13.4635 25.4222 13.2932 25.693 13.1219 25.8119C13.0173 25.8837 12.8821 25.9187 12.7208 25.9187Z" fill="#142034"/>
</g>
<g id="Group_16">
<path id="Vector_20" d="M17.5066 26.1333C16.5322 26.1333 14.9592 25.3421 13.0879 23.8841L13.2168 23.7109C15.4469 25.449 17.3398 26.2613 18.0375 25.7787C18.4278 25.5097 18.3521 24.8696 18.2205 24.3796L18.426 24.3216C18.6983 25.3329 18.4305 25.7704 18.1574 25.9592C17.9879 26.0762 17.7689 26.1333 17.5066 26.1333Z" fill="#142034"/>
</g>
<g id="Group_17">
<path id="Vector_21" d="M14.1503 26.1014C13.9304 26.1014 13.7104 26.0913 13.4923 26.0701C11.4434 25.8748 9.64689 24.7723 8.43359 22.9652L8.60937 22.8418C9.78661 24.5946 11.5281 25.6639 13.513 25.8527C15.8585 26.0765 18.3347 25.0523 20.3078 23.0435L20.4584 23.1973C18.6222 25.0661 16.3561 26.1014 14.1503 26.1014Z" fill="#142034"/>
</g>
<g id="Group_18">
<path id="Vector_22" d="M15.8578 26.2673C15.8181 26.2673 15.7785 26.2673 15.7388 26.2664C12.9931 26.2332 10.4043 25.0653 8.45093 22.9783L8.60507 22.8281C10.5188 24.8719 13.0535 26.0159 15.7424 26.049C15.7812 26.049 15.8199 26.0499 15.8596 26.0499C18.361 26.0499 20.702 25.0672 22.4633 23.2739L22.6139 23.4277C20.8101 25.2625 18.416 26.2673 15.8578 26.2673Z" fill="#142034"/>
</g>
</g>
<g id="Group_19">
<g id="Group_20">
<path id="Vector_23" d="M14.7046 25.0393C12.4474 25.0393 10.2318 24.3679 8.4614 22.9882L8.43256 22.9661L8.42354 22.9311C7.65645 20.085 10.1732 14.5725 14.0348 10.6424L14.1006 10.5752L14.1745 10.6332C18.2507 13.8108 22.1872 18.6988 22.9506 21.5301L22.9669 21.5909L22.9227 21.6361C20.7215 23.876 17.6765 25.0393 14.7046 25.0393ZM8.61915 22.838C12.6241 25.9346 18.9313 25.346 22.728 21.5274C21.9402 18.743 18.1074 13.995 14.1195 10.8644C10.3598 14.7236 7.90523 20.0657 8.61915 22.838Z" fill="#142034"/>
</g>
<g id="Group_21">
<path id="Vector_24" d="M13.0806 24.8615C12.7029 23.4615 10.7423 21.0337 8.70874 19.4485L8.83764 19.2754C10.9028 20.8854 12.8976 23.3648 13.2861 24.8035L13.0806 24.8615Z" fill="#142034"/>
</g>
<g id="Group_22">
<path id="Vector_25" d="M18.2235 24.3791C17.5745 21.9705 14.2068 17.7973 10.7166 15.0765L10.8455 14.9033C14.3673 17.649 17.7683 21.8729 18.4281 24.321L18.2235 24.3791Z" fill="#142034"/>
</g>
<g id="Group_23">
<path id="Vector_26" d="M10.679 23.3998C9.86682 23.3998 9.12225 23.2718 8.48315 23.0029L8.56428 22.8021C11.6525 24.1008 17.262 22.0026 21.0713 18.125L21.2219 18.2788C18.139 21.4168 13.8799 23.3998 10.679 23.3998Z" fill="#142034"/>
</g>
<g id="Group_24">
<path id="Vector_27" d="M8.57992 22.9945L8.47266 22.8066C9.86083 21.9804 14.1074 18.1341 17.9392 14.2344L18.0898 14.3882C14.2471 18.2999 9.98161 22.1609 8.57992 22.9945Z" fill="#142034"/>
</g>
</g>
<g id="Group_25">
<g id="Group_26">
<path id="Vector_28" d="M8.69765 23.1851L8.44615 22.9889C6.53607 21.4995 5.4003 19.3876 5.24886 17.0435C5.0857 14.5152 6.05742 12.033 7.98644 10.0463C7.70069 8.92816 8.00086 8.44185 8.30734 8.23001C9.22677 7.59541 11.4145 8.49343 14.1584 10.633L14.2557 10.7085L14.1692 10.797C10.3571 14.6783 7.86475 20.0959 8.61291 22.8737L8.69765 23.1851ZM9.05911 8.2604C8.69224 8.2604 8.50114 8.35988 8.42722 8.41053C7.96661 8.7283 8.05404 9.47711 8.20818 10.05L8.22441 10.1108L8.18024 10.1559C6.26655 12.1049 5.30024 14.5456 5.46069 17.0288C5.60131 19.2117 6.6208 21.1882 8.33979 22.626C7.82148 19.7284 10.2535 14.518 13.9321 10.7307C11.2685 8.67027 9.80277 8.2604 9.05911 8.2604Z" fill="#142034"/>
</g>
<g id="Group_27">
<path id="Vector_29" d="M8.71315 19.4489C7.1483 18.2295 6.24509 18.036 5.94673 18.2414C5.7403 18.3842 5.78447 18.7379 5.85749 19.0096L5.65197 19.0676C5.48521 18.4505 5.65557 18.1797 5.82684 18.0609C6.3118 17.7266 7.43856 18.1806 8.84205 19.2758L8.71315 19.4489Z" fill="#142034"/>
</g>
<g id="Group_28">
<path id="Vector_30" d="M10.7143 15.0779C8.48417 13.3399 6.59301 12.5275 5.89352 13.0101C5.50321 13.2791 5.57893 13.9192 5.71053 14.4092L5.50501 14.4672C5.23279 13.4559 5.5005 13.0184 5.77453 12.8296C6.57408 12.2779 8.46974 13.0534 10.8441 14.9047L10.7143 15.0779Z" fill="#142034"/>
</g>
<g id="Group_29">
<path id="Vector_31" d="M8.42867 22.9645C5.6974 18.8981 6.62495 12.3835 10.4956 8.44238L10.6461 8.5962C6.84399 12.4664 5.92816 18.8567 8.60445 22.8411L8.42867 22.9645Z" fill="#142034"/>
</g>
<g id="Group_30">
<path id="Vector_32" d="M8.43606 22.9791C4.50772 18.7847 4.46716 12.1605 8.34412 8.21289L8.49465 8.36671C4.69882 12.2305 4.74119 18.7184 8.5902 22.8281L8.43606 22.9791Z" fill="#142034"/>
</g>
</g>
<g id="Group_31">
<g id="Group_32">
<path id="Vector_33" d="M16.8543 21.0639L16.7804 21.0059C12.7042 17.8283 8.76776 12.9403 8.00426 10.109L7.98804 10.0482L8.03221 10.003C11.9047 6.06096 18.3921 5.45399 22.4926 8.65095L22.5214 8.67306L22.5305 8.70806C23.2976 11.5541 20.7808 17.0666 16.9201 20.9958L16.8543 21.0639ZM8.22601 10.1127C9.01384 12.897 12.8466 17.645 16.8354 20.7756C20.5942 16.9164 23.0488 11.5744 22.334 8.802C18.329 5.70544 12.0227 6.29399 8.22601 10.1127Z" fill="#142034"/>
</g>
<g id="Group_33">
<path id="Vector_34" d="M20.1046 16.7345C16.5828 13.9889 13.1818 9.76496 12.522 7.31681L12.7275 7.25879C13.3765 9.66733 16.7442 13.8406 20.2344 16.5604L20.1046 16.7345Z" fill="#142034"/>
</g>
<g id="Group_34">
<path id="Vector_35" d="M22.1032 12.3635C20.0381 10.7535 18.0424 8.27313 17.6548 6.83537L17.8603 6.77734C18.238 8.17734 20.1986 10.6052 22.2321 12.1903L22.1032 12.3635Z" fill="#142034"/>
</g>
<g id="Group_35">
<path id="Vector_36" d="M9.88271 13.515L9.73218 13.3612C13.5965 9.42741 19.3105 7.309 22.47 8.63807L22.3889 8.83978C19.3015 7.54018 13.6912 9.63741 9.88271 13.515Z" fill="#142034"/>
</g>
<g id="Group_36">
<path id="Vector_37" d="M13.0126 17.4037L12.8621 17.2499C16.7039 13.3391 20.9693 9.47808 22.371 8.64453L22.4783 8.83243C21.0892 9.6586 16.8436 13.5031 13.0126 17.4037Z" fill="#142034"/>
</g>
</g>
<g id="Group_37">
<g id="Group_38">
<path id="Vector_38" d="M21.8892 23.6082C20.7661 23.6082 18.9479 22.6926 16.7836 21.0062L16.6863 20.9307L16.7728 20.8423C20.5849 16.9619 23.0773 11.5443 22.3282 8.76639L22.2444 8.45508L22.4959 8.65126C24.4059 10.1406 25.5417 12.2526 25.6931 14.5966C25.8563 17.1249 24.8846 19.6071 22.9556 21.5929C23.2413 22.7111 22.9411 23.1974 22.6347 23.4092C22.4409 23.5428 22.1903 23.6082 21.8892 23.6082ZM17.0108 20.9076C20.9905 23.9839 22.2939 23.3807 22.5166 23.2278C22.9772 22.91 22.8898 22.1612 22.7356 21.5883L22.7194 21.5275L22.7636 21.4824C24.6773 19.5344 25.6427 17.0936 25.4822 14.6104C25.3416 12.4276 24.3221 10.451 22.6031 9.01323C23.1214 11.9118 20.6894 17.1212 17.0108 20.9076Z" fill="#142034"/>
</g>
<g id="Group_39">
<path id="Vector_39" d="M24.5276 18.9839C23.5532 18.9839 21.9802 18.1927 20.1089 16.7347L20.2378 16.5615C22.4679 18.2995 24.3599 19.1119 25.0585 18.6293C25.4488 18.3603 25.3731 17.7202 25.2415 17.2302L25.447 17.1722C25.7193 18.1835 25.4515 18.621 25.1784 18.8098C25.0089 18.9259 24.7899 18.9839 24.5276 18.9839Z" fill="#142034"/>
</g>
<g id="Group_40">
<path id="Vector_40" d="M24.7308 13.6882C24.1467 13.6882 23.2164 13.224 22.1167 12.3665L22.2456 12.1934C23.8104 13.4128 24.7137 13.6062 25.012 13.4009C25.2184 13.2581 25.1743 12.9044 25.1013 12.6327L25.3068 12.5747C25.4735 13.1918 25.3032 13.4626 25.1319 13.5814C25.0264 13.6523 24.8921 13.6882 24.7308 13.6882Z" fill="#142034"/>
</g>
<g id="Group_41">
<path id="Vector_41" d="M20.4462 23.197L20.2957 23.0432C24.0978 19.173 25.0136 12.7827 22.3373 8.7992L22.5131 8.67578C25.2444 12.7422 24.3177 19.2559 20.4462 23.197Z" fill="#142034"/>
</g>
<g id="Group_42">
<path id="Vector_42" d="M22.6003 23.4275L22.4497 23.2737C26.2446 19.4099 26.2023 12.9229 22.3533 8.81322L22.5074 8.66309C26.4357 12.8575 26.4772 19.4808 22.6003 23.4275Z" fill="#142034"/>
</g>
</g>
<g id="Group_43">
<g id="Group_44">
<path id="Vector_43" d="M22.7867 21.7685L22.738 21.5889C21.9853 18.7963 18.0822 13.9599 14.0385 10.8071L13.9412 10.7316L14.0277 10.6432C16.6445 7.97951 19.3253 6.60991 21.0235 7.07043C21.7699 7.27306 22.29 7.82661 22.528 8.67306C24.4218 10.1615 25.5468 12.2633 25.6973 14.5963C25.8614 17.143 24.8743 19.6437 22.9165 21.6368L22.7867 21.7685ZM14.2648 10.7095C18.2211 13.8217 22.0241 18.52 22.8922 21.3522C24.722 19.4263 25.6414 17.0389 25.4846 14.6111C25.3368 12.3296 24.2316 10.2748 22.3702 8.82411L22.3414 8.802L22.3324 8.767C22.1169 7.96845 21.6581 7.46833 20.9694 7.28227C19.3613 6.84478 16.8004 8.15727 14.2648 10.7095Z" fill="#142034"/>
</g>
<g id="Group_45">
<path id="Vector_44" d="M25.2381 17.2296C24.5891 14.8211 21.2215 10.6478 17.7312 7.92706L17.8601 7.75391C21.3819 10.4995 24.7829 14.7235 25.4428 17.1716L25.2381 17.2296Z" fill="#142034"/>
</g>
<g id="Group_46">
<path id="Vector_45" d="M25.1021 12.6291C24.7244 11.2291 22.7629 8.80125 20.7302 7.21613L20.8591 7.04297C22.9243 8.65296 24.92 11.1324 25.3076 12.5711L25.1021 12.6291Z" fill="#142034"/>
</g>
<g id="Group_47">
<path id="Vector_46" d="M21.2226 18.2792L21.072 18.1254C23.4644 15.6901 24.6632 13.0587 24.2792 11.0867C24.0773 10.0478 23.4274 9.2704 22.3998 8.83843L22.4809 8.63672C23.577 9.09816 24.2711 9.92987 24.4884 11.0443C24.8868 13.0872 23.6654 15.7923 21.2226 18.2792Z" fill="#142034"/>
</g>
<g id="Group_48">
<path id="Vector_47" d="M18.0858 14.3903L17.9353 14.2365C21.3426 10.7679 22.6641 9.06669 22.7723 8.69367C22.7272 8.70656 22.6425 8.74156 22.4919 8.8309L22.3847 8.64301C22.6199 8.50301 22.8516 8.39341 22.958 8.53433C23.031 8.63196 23.1536 8.79406 21.7744 10.4197C20.8919 11.4596 19.6164 12.8329 18.0858 14.3903Z" fill="#142034"/>
</g>
</g>
<g id="Group_49">
<g id="Group_50">
<path id="Vector_48" d="M14.1053 10.8637L14.0314 10.8056C12.3331 9.48118 11.1135 8.81895 10.2536 8.50763C9.5081 8.96631 8.81041 9.51618 8.18213 10.1554L8.05233 10.2871L8.00365 10.1075C7.69086 8.94605 7.99644 8.445 8.30833 8.2304C8.71847 7.94764 9.3801 7.96882 10.2301 8.26908C13.0362 6.57988 16.4895 6.14883 19.4714 7.08093C20.0429 6.95475 20.5639 6.94738 21.0155 7.06988C21.7727 7.27527 22.2964 7.84172 22.5298 8.7075L22.6137 9.01881L22.3622 8.82263C21.4878 8.14106 20.5017 7.6354 19.456 7.3029C17.9372 7.65659 16.0433 8.88987 14.1702 10.7964L14.1053 10.8637ZM10.4897 8.36671C11.4876 8.76645 12.7162 9.51434 14.0864 10.5754C15.8243 8.82079 17.5874 7.63909 19.0675 7.18777C16.2768 6.42146 13.1101 6.8433 10.4897 8.36671ZM9.0601 8.25987C8.69323 8.25987 8.50213 8.35934 8.42822 8.41C8.01537 8.69461 8.04331 9.32736 8.165 9.86802C8.72568 9.31631 9.33864 8.83368 9.98855 8.41921C9.59824 8.3004 9.29357 8.25987 9.0601 8.25987ZM19.8968 7.22369C20.7207 7.52211 21.5031 7.92829 22.2198 8.445C21.9764 7.83158 21.5545 7.44014 20.9623 7.27988C20.6423 7.1933 20.2844 7.1758 19.8968 7.22369Z" fill="#142034"/>
</g>
<g id="Group_51">
<path id="Vector_49" d="M17.7338 7.92749C15.5037 6.18947 13.6108 5.37711 12.9131 5.85974C12.5228 6.12868 12.5985 6.76881 12.7301 7.25881L12.5246 7.31683C12.2523 6.30552 12.5201 5.86803 12.7932 5.67921C13.5927 5.1275 15.4884 5.90303 17.8627 7.75433L17.7338 7.92749Z" fill="#142034"/>
</g>
<g id="Group_52">
<path id="Vector_50" d="M20.7236 7.21522C19.1588 5.99575 18.2547 5.80233 17.9572 6.00865C17.7508 6.15141 17.795 6.50509 17.868 6.7768L17.6625 6.83483C17.4957 6.21772 17.6661 5.94694 17.8373 5.82812C18.3214 5.4947 19.4482 5.94786 20.8525 7.04298L20.7236 7.21522Z" fill="#142034"/>
</g>
<g id="Group_53">
<path id="Vector_51" d="M22.3391 8.79731C21.1618 7.04455 19.4203 5.97522 17.4354 5.7864C15.0891 5.56351 12.6138 6.58679 10.6415 8.5956L10.491 8.44178C12.5092 6.38785 15.0476 5.34154 17.4552 5.56996C19.5042 5.76522 21.3007 6.86771 22.5149 8.67481L22.3391 8.79731Z" fill="#142034"/>
</g>
<g id="Group_54">
<path id="Vector_52" d="M22.3592 8.81126C20.4446 6.76746 17.9108 5.62352 15.2219 5.59036C12.6718 5.56089 10.2902 6.54456 8.50185 8.36548L8.35132 8.21166C10.1523 6.37785 12.5465 5.37207 15.1047 5.37207C15.1443 5.37207 15.184 5.37207 15.2237 5.37299C17.9693 5.40615 20.5582 6.57404 22.5124 8.66113L22.3592 8.81126Z" fill="#142034"/>
</g>
</g>
</g>
<g id="Group_55">
<path id="Vector_53" d="M15.4382 26.3787C15.2534 26.3787 15.0587 26.3704 14.9117 26.3593C14.6648 26.3418 14.3195 26.305 13.8571 26.2461C13.5849 26.2111 13.2459 26.1346 13.0386 26.0803C12.6979 25.99 12.2418 25.8491 11.9029 25.7284C11.6099 25.6243 10.9717 25.3526 10.4182 25.0284C10.1622 24.8792 9.48258 24.4813 8.78579 23.8716C8.43514 23.5649 7.90331 23.0712 7.33363 22.3279C7.14523 22.0829 7.00011 21.8683 6.9992 21.8665C6.85318 21.65 6.85318 21.65 6.63053 21.2881C6.45836 21.0081 6.27718 20.6406 6.19966 20.484C6.08428 20.2491 5.96259 19.971 5.88867 19.772C5.83369 19.6246 5.7769 19.4598 5.72191 19.2958C5.64259 19.0785 5.57228 18.8565 5.51188 18.6318C5.42986 18.3057 5.32259 17.8756 5.27842 17.5468C5.23696 17.241 5.19098 16.8919 5.16935 16.623C5.16034 16.5161 5.13239 16.144 5.1396 15.853L5.14051 15.8069C5.14681 15.5389 5.15493 15.2055 5.17386 14.9485C5.19098 14.7238 5.22704 14.4143 5.2658 14.161C5.41273 13.2142 5.6498 12.5298 5.65971 12.5013C5.73002 12.3014 5.85983 11.9284 5.9689 11.665C6.04822 11.4734 6.17712 11.1952 6.31414 10.9217C6.51695 10.5155 6.82884 10.0025 7.08934 9.64326C7.42286 9.18458 7.84923 8.6734 8.17644 8.34274C8.67221 7.84169 8.86602 7.69156 9.51142 7.1942C9.73587 7.02104 10.0532 6.82578 10.2713 6.69499C10.4705 6.57525 10.7518 6.42236 10.987 6.30631C11.2142 6.19394 11.5378 6.0521 11.8109 5.94526C11.966 5.88447 12.1534 5.82276 12.3355 5.76381C12.4149 5.73802 12.4915 5.71315 12.56 5.68921C12.8151 5.60263 13.1522 5.52894 13.4479 5.46723C13.6083 5.43408 13.8012 5.4046 13.9878 5.37697C14.0671 5.365 14.1428 5.35395 14.2123 5.34289C14.4962 5.29684 14.8712 5.27934 15.1668 5.27013C15.4201 5.26092 15.7167 5.26368 15.9213 5.27566C16.217 5.29316 16.6289 5.33276 16.9688 5.37697C17.451 5.4396 17.8819 5.55566 18.3371 5.67908C18.6769 5.77118 19.1276 5.93328 19.4584 6.08157C19.7649 6.21973 19.9939 6.32749 20.157 6.41315C20.3635 6.52091 20.6393 6.67841 20.843 6.80552C21.0548 6.93723 21.2973 7.09933 21.4605 7.21907C21.7038 7.39867 21.7859 7.45854 22.1509 7.76709C22.1906 7.80117 22.3988 7.98077 22.672 8.25064C22.8802 8.45695 23.0541 8.65129 23.138 8.74432C23.2389 8.85761 23.4643 9.12471 23.6058 9.31261C23.8348 9.61471 23.8753 9.67734 24.1034 10.02C24.2747 10.2788 24.5775 10.8093 24.7416 11.1621C24.8678 11.4329 25.0787 11.8869 25.2509 12.4248C25.4384 13.0088 25.5673 13.5227 25.6349 13.9519C25.7034 14.3867 25.7809 14.8776 25.7953 15.5822C25.8115 16.3549 25.7439 16.9647 25.7025 17.2594C25.6601 17.5606 25.5817 18.1224 25.3482 18.9118C25.2076 19.3879 24.9534 19.9995 24.765 20.4287C24.6785 20.6258 24.5397 20.8883 24.3405 21.231C24.2539 21.3811 24.1394 21.5542 24.0295 21.7209C23.9817 21.7946 23.9348 21.8646 23.8934 21.93C23.7383 22.1723 23.5021 22.4679 23.3327 22.6641L23.302 22.7C23.0983 22.9358 22.8459 23.2287 22.6251 23.4313C22.5755 23.4774 22.5214 23.5271 22.4655 23.5796C22.3141 23.7205 22.1428 23.8799 21.9986 23.9996C21.7994 24.1654 21.5055 24.403 21.2658 24.5587L21.1008 24.6665C20.9295 24.7788 20.7348 24.9059 20.5744 24.999C20.3265 25.1417 20.002 25.3112 19.7676 25.4208C18.9392 25.8076 18.2244 25.9955 18.146 26.0158C17.6583 26.1401 17.0201 26.2516 16.6208 26.3087C16.4036 26.34 16.1313 26.3511 15.8907 26.3612C15.8113 26.3649 15.7356 26.3676 15.6653 26.3713C15.5959 26.3768 15.5175 26.3787 15.4382 26.3787ZM7.28765 21.9033C7.34444 21.9825 7.41836 22.0848 7.50129 22.1925C8.06016 22.9211 8.58117 23.4046 8.92461 23.7058C9.60607 24.3026 10.2731 24.6922 10.5237 24.8387C11.0654 25.1555 11.6865 25.4208 11.9732 25.5221C12.3067 25.64 12.7565 25.7791 13.0927 25.8684C13.3577 25.9384 13.6678 26.002 13.8841 26.0296C14.3421 26.0886 14.6837 26.1254 14.9271 26.142C15.1308 26.1567 15.4292 26.1678 15.6563 26.1558C15.7275 26.1521 15.8041 26.1484 15.8835 26.1457C16.1187 26.1355 16.3864 26.1245 16.5929 26.095C16.9868 26.0388 17.6169 25.9292 18.0964 25.8067C18.173 25.7874 18.8707 25.6041 19.682 25.2246C19.9118 25.1168 20.23 24.9511 20.4725 24.8111C20.6285 24.7217 20.8196 24.5955 20.989 24.485L21.1549 24.3763C21.3856 24.2271 21.6723 23.9941 21.8679 23.8329C22.0076 23.7178 22.1762 23.5603 22.3258 23.4212C22.3826 23.3687 22.4367 23.318 22.4872 23.272C22.699 23.0777 22.9478 22.7903 23.147 22.5582L23.1776 22.5223C23.3417 22.3316 23.5707 22.0452 23.7194 21.8121C23.7608 21.7467 23.8086 21.6749 23.8573 21.6012C23.9655 21.4363 24.0772 21.2659 24.1611 21.1213C24.3558 20.7861 24.491 20.531 24.5739 20.3412C24.7596 19.9175 25.0093 19.3152 25.1472 18.85C25.3762 18.0764 25.4537 17.5256 25.4952 17.2299C25.5357 16.9416 25.6015 16.3448 25.5853 15.5877C25.5709 14.8988 25.4952 14.4152 25.4275 13.9888C25.3617 13.5697 25.2346 13.0677 25.0508 12.4939C24.8822 11.9698 24.6749 11.5231 24.5514 11.2569C24.3909 10.9125 24.0962 10.3958 23.9312 10.1471C23.7041 9.80537 23.6644 9.74458 23.439 9.44708C23.3002 9.26379 23.0812 9.00313 22.9829 8.89261C22.9009 8.8005 22.7296 8.60985 22.5259 8.40722C22.2582 8.14195 22.0554 7.96788 22.0175 7.93564C21.6579 7.6317 21.5767 7.57183 21.3379 7.39591C21.1792 7.27893 20.9422 7.12051 20.7348 6.99157C20.5356 6.86723 20.2652 6.71341 20.0624 6.60749C19.9028 6.52368 19.6784 6.41776 19.3755 6.28144C19.0537 6.13684 18.6156 5.97934 18.2848 5.89C17.8368 5.76842 17.4131 5.65421 16.9444 5.59342C16.6082 5.55013 16.2035 5.51052 15.9114 5.49302C15.7122 5.48105 15.4237 5.47921 15.1768 5.4875C14.8874 5.49763 14.5205 5.51421 14.2483 5.55842C14.1789 5.56947 14.1014 5.58144 14.0221 5.59342C13.8382 5.62105 13.648 5.6496 13.4938 5.68184C13.2847 5.72605 12.8953 5.8071 12.6303 5.89736C12.56 5.92131 12.4834 5.94618 12.4031 5.97289C12.2238 6.03184 12.0381 6.0917 11.8893 6.15065C11.6216 6.25565 11.3043 6.39473 11.0817 6.50433C10.8545 6.6167 10.5724 6.76867 10.3813 6.88381C10.1667 7.01275 9.85756 7.20341 9.64213 7.3692C9.00573 7.86011 8.81373 8.0084 8.32878 8.4984C8.00878 8.82261 7.58962 9.32274 7.26241 9.77405C7.00822 10.124 6.70444 10.626 6.50613 11.0221C6.37092 11.2919 6.24473 11.5646 6.16721 11.7515C6.06084 12.0094 5.93194 12.3778 5.86253 12.5759C5.85262 12.6035 5.62276 13.2694 5.47853 14.196C5.44067 14.4401 5.40462 14.7495 5.38839 14.966C5.36946 15.2174 5.36225 15.5481 5.35594 15.8134L5.35504 15.8594C5.35053 16.0482 5.36135 16.3273 5.38388 16.6055C5.40732 16.8901 5.4605 17.2833 5.49205 17.5173C5.53442 17.8341 5.63988 18.2569 5.71741 18.5664C5.71831 18.571 5.71921 18.5747 5.72101 18.5793C5.77239 18.7497 5.8436 18.9771 5.91932 19.2065C6.42501 20.5982 7.3183 21.8213 8.53069 22.7802C8.54692 22.793 8.56224 22.805 8.57847 22.8179L8.44957 22.9911C8.0232 22.6577 7.6356 22.2948 7.28765 21.9033Z" fill="#142034"/>
</g>
</g>
</g>
</g>
</g>
</g>
<defs>
<clipPath id="clip0_642_3982">
<rect width="45.0704" height="50" fill="white"/>
</clipPath>
</defs>
</svg>
