<svg width="28" height="28" viewBox="0 0 28 28" fill="none" xmlns="http://www.w3.org/2000/svg">
  <path fill-rule="evenodd" clip-rule="evenodd" d="M-6.11959e-07 14C-6.36101e-07 13.4477 0.447715 13 0.999999 13L24.5858 13L13.2929 1.70711C12.9024 1.31658 12.9024 0.68342 13.2929 0.292894C13.6834 -0.0976301 14.3166 -0.0976302 14.7071 0.292894L27.5364 13.1222C28.2293 13.8151 27.7386 15 26.7586 15L0.999999 15C0.447715 15 -5.87818e-07 14.5523 -6.11959e-07 14ZM13.2929 27.7071C12.9024 27.3166 12.9024 26.6834 13.2929 26.2929L19.7929 19.7929C20.1834 19.4024 20.8166 19.4024 21.2071 19.7929C21.5976 20.1834 21.5976 20.8166 21.2071 21.2071L14.7071 27.7071C14.3166 28.0976 13.6834 28.0976 13.2929 27.7071Z"/>
</svg>
