<svg xmlns="http://www.w3.org/2000/svg" width="8" height="45" viewBox="0 0 8 45" fill="none">
  <g clip-path="url(#clip0_1241_2705)">
    <path d="M0.520725 34.8742C0.746147 34.3734 1.06174 33.9881 1.47443 33.7184C1.88713 33.4487 2.37265 33.3121 2.93794 33.3121C3.50323 33.3121 3.98182 33.4487 4.39452 33.7184C4.81068 33.9881 5.12974 34.3734 5.34823 34.8742C5.57018 35.3751 5.67769 35.9635 5.67769 36.643L5.67769 43.2277L7.76891 43.2277L7.76891 45L0.184326 45L0.184326 36.6395C0.184326 35.96 0.295303 35.3716 0.520725 34.8707L0.520725 34.8742ZM3.90899 35.5257C3.6801 35.249 3.35758 35.1089 2.93794 35.1089C2.51831 35.1089 2.18538 35.249 1.95649 35.5257C1.7276 35.8024 1.61662 36.2087 1.61662 36.7411L1.61662 43.2277L4.25233 43.2277L4.25233 36.7411C4.25233 36.2087 4.13788 35.8024 3.91246 35.5257L3.90899 35.5257Z" fill="#E4E0DC" fill-opacity="0.5"/>
    <path d="M6.36436 26.5278L7.77238 26.5278L7.77238 32.461L0.184326 32.461L0.184326 26.5278L1.59235 26.5278L1.59235 30.6992L3.23966 30.6992L3.23966 26.5278L4.60607 26.5278L4.60607 30.6992L6.36089 30.6992L6.36089 26.5278L6.36436 26.5278Z" fill="#E4E0DC" fill-opacity="0.5"/>
    <path d="M5.08812 20.9342L7.77585 20.9342L7.77585 22.7065L5.06385 22.7065L0.184326 25.6731L0.184326 23.7888L3.55525 21.7398L0.184326 19.6909L0.184326 17.9501L5.08466 20.9272L5.08812 20.9342Z" fill="#E4E0DC" fill-opacity="0.5"/>
    <path d="M7.77585 15.3373C7.16894 15.8206 6.40251 16.1148 5.57018 16.1148C3.60727 16.1148 2.00851 14.5002 2.00851 12.5178C2.00851 10.5353 3.60727 8.92068 5.57018 8.92068C6.40251 8.92068 7.16548 9.21139 7.77585 9.69823L7.77585 7.5582C7.10305 7.25348 6.35742 7.08186 5.57018 7.08186C2.59461 7.08186 0.184326 9.5161 0.184326 12.5213C0.184326 15.5264 2.59461 17.9607 5.57018 17.9607C6.35742 17.9607 7.09958 17.789 7.77585 17.4843L7.77585 15.3443L7.77585 15.3373Z" fill="#E4E0DC" fill-opacity="0.5"/>
    <path d="M1.61662 4.62654L1.61662 7.07829L0.184326 7.07829L0.184326 0.399007L1.61662 0.399007L1.61662 2.85076L7.77585 2.85076L7.77585 4.62304L1.61662 4.62304L1.61662 4.62654Z" fill="#E4E0DC" fill-opacity="0.5"/>
  </g>
  <defs>
    <clipPath id="clip0_1241_2705">
      <rect width="44.601" height="7.59153" fill="white" transform="translate(0.184326 45) rotate(-90)"/>
    </clipPath>
  </defs>
</svg>
