<svg width="71" height="86" viewBox="0 0 71 86" fill="none" xmlns="http://www.w3.org/2000/svg">
<path d="M70.0361 34.4C70.0361 60.2 35.0361 86 35.0361 86C35.0361 86 0.0361328 60.2 0.0361328 34.4C0.0361328 25.2766 3.72362 16.5268 10.2874 10.0755C16.8512 3.62428 25.7536 0 35.0361 0C44.3187 0 53.2211 3.62428 59.7849 10.0755C66.3486 16.5268 70.0361 25.2766 70.0361 34.4Z" fill="#221C35"/>
<path d="M43.6948 25.754C44.7661 26.2593 45.5902 26.9666 46.1671 27.8916C46.744 28.8166 47.0361 29.9049 47.0361 31.1719C47.0361 32.439 46.744 33.5117 46.1671 34.4367C45.5902 35.3695 44.7661 36.0846 43.6948 36.5743C42.6235 37.0718 41.3649 37.3128 39.9115 37.3128H25.827V42H22.0361V25H39.919C41.3724 25 42.631 25.2487 43.7023 25.754H43.6948ZM42.3013 33.3484C42.8932 32.8354 43.1929 32.1125 43.1929 31.1719C43.1929 30.2314 42.8932 29.4851 42.3013 28.9721C41.7095 28.4591 40.8404 28.2103 39.7017 28.2103H25.827V34.118H39.7017C40.8404 34.118 41.7095 33.8615 42.3013 33.3562V33.3484Z" fill="white"/>
<path d="M54.0598 46.0237H16.0125V20.9763H54.0598V46.0237Z" stroke="white" stroke-width="1.95269"/>
</svg>
